<svg version="1.2" xmlns="http://www.w3.org/2000/svg" viewBox="0 0 453 245" width="453" height="245">
	<title>TS logo design-ai</title>
	<defs>
		<linearGradient id="g1" x2="1" gradientUnits="userSpaceOnUse" gradientTransform="matrix(134.051,0,0,173.953,79.833,52.55)">
			<stop offset="0" stop-color="#01f8f5"/>
			<stop offset=".998" stop-color="#006ef0"/>
		</linearGradient>
		<linearGradient id="g2" x2="1" gradientUnits="userSpaceOnUse" gradientTransform="matrix(85.511,0,0,125.377,35.029,53.655)">
			<stop offset="0" stop-color="#01f8f5"/>
			<stop offset=".998" stop-color="#006ef0"/>
		</linearGradient>
		<linearGradient id="g3" x2="1" gradientUnits="userSpaceOnUse" gradientTransform="matrix(-94.299,193.341,-83.183,-40.571,319.453,104.04)">
			<stop offset="0" stop-color="#01f8f5"/>
			<stop offset=".998" stop-color="#006ef0"/>
		</linearGradient>
		<linearGradient id="g4" x2="1" gradientUnits="userSpaceOnUse" gradientTransform="matrix(-65.832,134.975,-145.375,-70.904,209.65,97.117)">
			<stop offset="0" stop-color="#01f8f5"/>
			<stop offset=".998" stop-color="#006ef0"/>
		</linearGradient>
		<linearGradient id="g5" x2="1" gradientUnits="userSpaceOnUse" gradientTransform="matrix(-35.55,72.889,-34.43,-16.793,221.302,76.215)">
			<stop offset="0" stop-color="#01f8f5"/>
			<stop offset=".998" stop-color="#006ef0"/>
		</linearGradient>
		<linearGradient id="g6" x2="1" gradientUnits="userSpaceOnUse" gradientTransform="matrix(-9.207,18.877,-17.256,-8.416,169.557,66.958)">
			<stop offset="0" stop-color="#01f8f5"/>
			<stop offset=".998" stop-color="#006ef0"/>
		</linearGradient>
		<linearGradient id="g7" x2="1" gradientUnits="userSpaceOnUse" gradientTransform="matrix(-25.049,51.358,-26.499,-12.925,785.277,403.781)">
			<stop offset="0" stop-color="#01f8f5"/>
			<stop offset=".998" stop-color="#006ef0"/>
		</linearGradient>
		<linearGradient id="g8" x2="1" gradientUnits="userSpaceOnUse" gradientTransform="matrix(-7.316,15,-9.996,-4.875,114.654,203.115)">
			<stop offset="0" stop-color="#01f8f5"/>
			<stop offset=".998" stop-color="#006ef0"/>
		</linearGradient>
		<linearGradient id="g9" x2="1" gradientUnits="userSpaceOnUse" gradientTransform="matrix(-26.423,54.176,-15.959,-7.784,205.226,170.288)">
			<stop offset="0" stop-color="#01f8f5"/>
			<stop offset=".998" stop-color="#006ef0"/>
		</linearGradient>
		<linearGradient id="g10" x2="1" gradientUnits="userSpaceOnUse" gradientTransform="matrix(-19.999,41.004,-28.718,-14.007,153.841,183.849)">
			<stop offset="0" stop-color="#01f8f5"/>
			<stop offset=".998" stop-color="#006ef0"/>
		</linearGradient>
		<linearGradient id="g11" x2="1" gradientUnits="userSpaceOnUse" gradientTransform="matrix(-30.758,63.064,-17.212,-8.395,223.814,186.041)">
			<stop offset="0" stop-color="#01f8f5"/>
			<stop offset=".998" stop-color="#006ef0"/>
		</linearGradient>
		<linearGradient id="g12" x2="1" gradientUnits="userSpaceOnUse" gradientTransform="matrix(-17.618,36.122,-46.837,-22.844,128.587,194.339)">
			<stop offset="0" stop-color="#01f8f5"/>
			<stop offset=".998" stop-color="#006ef0"/>
		</linearGradient>
		<linearGradient id="g13" x2="1" gradientUnits="userSpaceOnUse" gradientTransform="matrix(-12.037,24.68,-16.596,-8.094,240.622,76.764)">
			<stop offset="0" stop-color="#01f8f5"/>
			<stop offset=".998" stop-color="#006ef0"/>
		</linearGradient>
		<linearGradient id="g14" x2="1" gradientUnits="userSpaceOnUse" gradientTransform="matrix(-1.249,2.561,-2.202,-1.074,190.956,58.899)">
			<stop offset="0" stop-color="#01f8f5"/>
			<stop offset=".998" stop-color="#006ef0"/>
		</linearGradient>
		<linearGradient id="g15" x2="1" gradientUnits="userSpaceOnUse" gradientTransform="matrix(-29.433,60.346,-18.706,-9.124,246.463,112.864)">
			<stop offset="0" stop-color="#01f8f5"/>
			<stop offset=".998" stop-color="#006ef0"/>
		</linearGradient>
		<linearGradient id="g16" x2="1" gradientUnits="userSpaceOnUse" gradientTransform="matrix(-35.14,72.047,-29.214,-14.249,417.032,208.573)">
			<stop offset="0" stop-color="#01f8f5"/>
			<stop offset=".998" stop-color="#006ef0"/>
		</linearGradient>
		<linearGradient id="g17" x2="1" gradientUnits="userSpaceOnUse" gradientTransform="matrix(-3.66,7.505,-7.505,-3.66,186.46,66.841)">
			<stop offset="0" stop-color="#01f8f5"/>
			<stop offset=".998" stop-color="#006ef0"/>
		</linearGradient>
		<linearGradient id="g18" x2="1" gradientUnits="userSpaceOnUse" gradientTransform="matrix(-3.66,7.505,-7.505,-3.66,168.783,81.641)">
			<stop offset="0" stop-color="#01f8f5"/>
			<stop offset=".998" stop-color="#006ef0"/>
		</linearGradient>
		<linearGradient id="g19" x2="1" gradientUnits="userSpaceOnUse" gradientTransform="matrix(-3.66,7.505,-7.505,-3.66,149.435,86.754)">
			<stop offset="0" stop-color="#01f8f5"/>
			<stop offset=".998" stop-color="#006ef0"/>
		</linearGradient>
		<linearGradient id="g20" x2="1" gradientUnits="userSpaceOnUse" gradientTransform="matrix(-3.66,7.505,-7.505,-3.66,148.818,154.125)">
			<stop offset="0" stop-color="#01f8f5"/>
			<stop offset=".998" stop-color="#006ef0"/>
		</linearGradient>
		<linearGradient id="g21" x2="1" gradientUnits="userSpaceOnUse" gradientTransform="matrix(-3.66,7.505,-7.505,-3.66,148.818,166.613)">
			<stop offset="0" stop-color="#01f8f5"/>
			<stop offset=".998" stop-color="#006ef0"/>
		</linearGradient>
		<linearGradient id="g22" x2="1" gradientUnits="userSpaceOnUse" gradientTransform="matrix(-3.66,7.505,-7.505,-3.66,154.445,77.813)">
			<stop offset="0" stop-color="#01f8f5"/>
			<stop offset=".998" stop-color="#006ef0"/>
		</linearGradient>
		<linearGradient id="g23" x2="1" gradientUnits="userSpaceOnUse" gradientTransform="matrix(-3.66,7.505,-7.505,-3.66,194.374,58.722)">
			<stop offset="0" stop-color="#01f8f5"/>
			<stop offset=".998" stop-color="#006ef0"/>
		</linearGradient>
		<linearGradient id="g24" x2="1" gradientUnits="userSpaceOnUse" gradientTransform="matrix(-3.66,7.505,-7.505,-3.66,196.533,84.622)">
			<stop offset="0" stop-color="#01f8f5"/>
			<stop offset=".998" stop-color="#006ef0"/>
		</linearGradient>
		<linearGradient id="g25" x2="1" gradientUnits="userSpaceOnUse" gradientTransform="matrix(-3.66,7.505,-7.505,-3.66,165.083,142.897)">
			<stop offset="0" stop-color="#01f8f5"/>
			<stop offset=".998" stop-color="#006ef0"/>
		</linearGradient>
		<linearGradient id="g26" x2="1" gradientUnits="userSpaceOnUse" gradientTransform="matrix(-3.66,7.505,-7.505,-3.66,165.083,152.866)">
			<stop offset="0" stop-color="#01f8f5"/>
			<stop offset=".998" stop-color="#006ef0"/>
		</linearGradient>
		<linearGradient id="g27" x2="1" gradientUnits="userSpaceOnUse" gradientTransform="matrix(-3.66,7.505,-7.505,-3.66,157.015,179.126)">
			<stop offset="0" stop-color="#01f8f5"/>
			<stop offset=".998" stop-color="#006ef0"/>
		</linearGradient>
		<linearGradient id="g28" x2="1" gradientUnits="userSpaceOnUse" gradientTransform="matrix(-3.66,7.505,-7.505,-3.66,141.135,184.06)">
			<stop offset="0" stop-color="#01f8f5"/>
			<stop offset=".998" stop-color="#006ef0"/>
		</linearGradient>
		<linearGradient id="g29" x2="1" gradientUnits="userSpaceOnUse" gradientTransform="matrix(-3.66,7.505,-7.505,-3.66,111.227,209.189)">
			<stop offset="0" stop-color="#01f8f5"/>
			<stop offset=".998" stop-color="#006ef0"/>
		</linearGradient>
		<linearGradient id="g30" x2="1" gradientUnits="userSpaceOnUse" gradientTransform="matrix(-3.66,7.505,-7.505,-3.66,140.107,123.78)">
			<stop offset="0" stop-color="#01f8f5"/>
			<stop offset=".998" stop-color="#006ef0"/>
		</linearGradient>
		<linearGradient id="g31" x2="1" gradientUnits="userSpaceOnUse" gradientTransform="matrix(-3.66,7.505,-7.505,-3.66,140.107,134.109)">
			<stop offset="0" stop-color="#01f8f5"/>
			<stop offset=".998" stop-color="#006ef0"/>
		</linearGradient>
		<linearGradient id="g32" x2="1" gradientUnits="userSpaceOnUse" gradientTransform="matrix(-3.66,7.505,-7.505,-3.66,203.008,59.916)">
			<stop offset="0" stop-color="#01f8f5"/>
			<stop offset=".998" stop-color="#006ef0"/>
		</linearGradient>
		<linearGradient id="g33" x2="1" gradientUnits="userSpaceOnUse" gradientTransform="matrix(-3.66,7.505,-7.505,-3.66,121.08,188.942)">
			<stop offset="0" stop-color="#01f8f5"/>
			<stop offset=".998" stop-color="#006ef0"/>
		</linearGradient>
		<linearGradient id="g34" x2="1" gradientUnits="userSpaceOnUse" gradientTransform="matrix(-3.66,7.505,-7.505,-3.66,112.216,197.575)">
			<stop offset="0" stop-color="#01f8f5"/>
			<stop offset=".998" stop-color="#006ef0"/>
		</linearGradient>
		<linearGradient id="g35" x2="1" gradientUnits="userSpaceOnUse" gradientTransform="matrix(-3.66,7.505,-7.505,-3.66,129.482,215.664)">
			<stop offset="0" stop-color="#01f8f5"/>
			<stop offset=".998" stop-color="#006ef0"/>
		</linearGradient>
		<linearGradient id="g36" x2="1" gradientUnits="userSpaceOnUse" gradientTransform="matrix(-19.881,40.762,-20.241,-9.872,162.342,178.87)">
			<stop offset="0" stop-color="#01f8f5"/>
			<stop offset=".998" stop-color="#006ef0"/>
		</linearGradient>
		<linearGradient id="g37" x2="1" gradientUnits="userSpaceOnUse" gradientTransform="matrix(-7.747,15.884,-12.113,-5.908,135.859,187.607)">
			<stop offset="0" stop-color="#01f8f5"/>
			<stop offset=".998" stop-color="#006ef0"/>
		</linearGradient>
		<linearGradient id="g38" x2="1" gradientUnits="userSpaceOnUse" gradientTransform="matrix(-10.176,20.863,-24.241,-11.823,194.005,65.606)">
			<stop offset="0" stop-color="#01f8f5"/>
			<stop offset=".998" stop-color="#006ef0"/>
		</linearGradient>
	</defs>
	<style>
		.s0 { fill: #000000 } 
		.s1 { fill: url(#g1) } 
		.s2 { fill: url(#g2) } 
		.s3 { fill: #006ef0 } 
		.s4 { fill: url(#g3) } 
		.s5 { fill: url(#g4) } 
		.s6 { fill: url(#g5) } 
		.s7 { fill: url(#g6) } 
		.s8 { fill: url(#g7) } 
		.s9 { fill: url(#g8) } 
		.s10 { fill: url(#g9) } 
		.s11 { fill: url(#g10) } 
		.s12 { fill: url(#g11) } 
		.s13 { fill: url(#g12) } 
		.s14 { fill: url(#g13) } 
		.s15 { fill: url(#g14) } 
		.s16 { fill: url(#g15) } 
		.s17 { fill: url(#g16) } 
		.s18 { fill: url(#g17) } 
		.s19 { fill: url(#g18) } 
		.s20 { fill: url(#g19) } 
		.s21 { fill: url(#g20) } 
		.s22 { fill: url(#g21) } 
		.s23 { fill: url(#g22) } 
		.s24 { fill: url(#g23) } 
		.s25 { fill: url(#g24) } 
		.s26 { fill: url(#g25) } 
		.s27 { fill: url(#g26) } 
		.s28 { fill: url(#g27) } 
		.s29 { fill: url(#g28) } 
		.s30 { fill: url(#g29) } 
		.s31 { fill: url(#g30) } 
		.s32 { fill: url(#g31) } 
		.s33 { fill: url(#g32) } 
		.s34 { fill: url(#g33) } 
		.s35 { fill: url(#g34) } 
		.s36 { fill: url(#g35) } 
		.s37 { fill: url(#g36) } 
		.s38 { fill: url(#g37) } 
		.s39 { fill: url(#g38) } 
	</style>
	<g id="Layer 1">
		<g id="&lt;Group&gt;">
			<path id="ManiTech" class="s0" aria-label="ManiTech"  d="m224.9 107.5c-0.7 0-1.1 0.3-1.3 1l-6.5 29-6.4-29c-0.2-0.7-0.6-1-1.3-1h-7.7c-0.7 0-1.1 0.4-1.1 1.1v44.2c0 0.8 0.4 1.2 1.1 1.2h5.4c0.7 0 1.1-0.4 1.1-1.2v-26.1h0.4l5.8 26.3c0.2 0.7 0.6 1 1.3 1h2.8c0.7 0 1.1-0.3 1.3-1l5.8-26.3h0.4v26.1c0 0.8 0.4 1.2 1.1 1.2h5.4c0.8 0 1.2-0.4 1.2-1.2v-44.2c0-0.7-0.4-1.1-1.2-1.1zm41.6 46.5c0.7 0 0.9-0.3 0.8-1l-9.7-44.7c-0.1-0.6-0.4-0.8-0.9-0.8h-8.1c-0.6 0-0.9 0.2-1 0.8l-9.7 44.7c-0.2 0.7 0.1 1 0.8 1h6.2c0.5 0 0.8-0.3 0.9-0.8l1.6-8.5h10.4l1.6 8.5c0.1 0.5 0.4 0.8 0.9 0.8zm-10.2-16.1h-7.4l3.7-20.3zm33.5-30.4c-0.6 0-0.9 0.3-0.9 0.9v24.5h-0.4l-8.8-24.7c-0.2-0.5-0.5-0.7-1-0.7h-5.8c-0.6 0-0.9 0.3-0.9 0.9v44.7c0 0.5 0.3 0.9 0.9 0.9h6c0.7 0 1-0.4 1-0.9v-24.7h0.3l8.9 24.8c0.1 0.6 0.5 0.8 1 0.8h5.8c0.6 0 0.9-0.4 0.9-0.9v-44.7c0-0.6-0.3-0.9-0.9-0.9zm13.7 0c-0.6 0-0.9 0.3-0.9 0.9v44.7c0 0.5 0.3 0.9 0.9 0.9h6c0.6 0 1-0.4 1-0.9v-44.7c0-0.6-0.4-0.9-1-0.9zm12.6 0c-0.6 0-0.9 0.3-0.9 0.9v5.8c0 0.6 0.3 0.9 0.9 0.9h6.8v38c0 0.6 0.3 0.9 0.9 0.9h6c0.7 0 1-0.3 1-0.9v-38h6.7c0.7 0 1-0.3 1-0.9v-5.8c0-0.6-0.3-0.9-1-0.9zm49.6 0.9c0-0.6-0.2-0.9-0.9-0.9h-21.4c-0.5 0-0.9 0.3-0.9 0.9v44.7c0 0.5 0.4 0.9 0.9 0.9h21.4c0.7 0 0.9-0.4 0.9-0.9v-5.8c0-0.7-0.2-1-0.9-1h-14.5v-11.7h11.1c0.6 0 0.9-0.4 0.9-1v-5.8c0-0.6-0.3-1-0.9-1h-11.1v-11.6h14.5c0.7 0 0.9-0.4 0.9-1zm28.6 7.5c0-5.5-3-8.4-8.4-8.4h-6.5c-5.5 0-8.4 2.9-8.4 8.4v29.7c0 5.5 2.9 8.4 8.4 8.4h6.5c5.4 0 8.4-2.9 8.4-8.4v-6.2c0-0.6-0.3-1-0.9-1h-5.8c-0.7 0-1 0.4-1 1v4.6c0 1.6-0.8 2.3-2.3 2.3h-3c-1.5 0-2.4-0.7-2.4-2.3v-26.5c0-1.5 0.8-2.3 2.4-2.3h3c1.5 0 2.3 0.8 2.3 2.3v4.6c0 0.6 0.3 1 1 1h5.8c0.6 0 0.9-0.4 0.9-1zm21.2 11.1h-7.5v-18.5c0-0.6-0.3-0.9-0.9-0.9h-6c-0.7 0-1 0.3-1 0.9v44.7c0 0.5 0.3 0.9 1 0.9h6c0.6 0 0.9-0.4 0.9-0.9v-18.5h7.5v18.5c0 0.5 0.3 0.9 0.9 0.9h6c0.7 0 1-0.4 1-0.9v-44.7c0-0.6-0.3-0.9-1-0.9h-6c-0.6 0-0.9 0.3-0.9 0.9z"/>
			<g id="&lt;Group&gt;">
				<g id="&lt;Group&gt;">
					<path id="&lt;Compound Path&gt;" fill-rule="evenodd" class="s1" d="m127.1 226.5h-26.3c-11.6 0-21-9.4-21-20.9 0-11.6 9.4-21 21-21h6.6c10.2 0 18.5-8.3 18.5-18.5v-72.9c0-22.4 18.3-40.7 40.7-40.7h26.3c11.6 0 21 9.4 21 21 0 11.6-9.4 21-21 21h-6.6c-10.2 0-18.5 8.3-18.5 18.5v72.8c0 22.4-18.2 40.7-40.7 40.7zm-26.3-39.5c-10.2 0-18.6 8.3-18.6 18.6 0 10.2 8.4 18.5 18.6 18.5h26.3c21.1 0 38.3-17.2 38.3-38.3v-72.8c0-11.6 9.4-21 20.9-21h6.6c10.3 0 18.6-8.3 18.6-18.5 0-10.2-8.3-18.5-18.6-18.5h-26.3c-21.1 0-38.3 17.1-38.3 38.2v72.9c0 11.5-9.4 20.9-20.9 20.9z"/>
					<path id="&lt;Path&gt;" class="s2" d="m100.8 179c10.9 0 19.7-8.8 19.7-19.7v-66.2c0-21.8-17.6-39.4-39.4-39.4h-26.3c-10.9 0-19.8 8.8-19.8 19.7 0 10.9 8.9 19.7 19.8 19.7h6.5c10.9 0 19.8 8.9 19.8 19.8v46.4c0 10.9 8.8 19.7 19.7 19.7z"/>
					<path id="&lt;Path&gt;" class="s3" d="m135.8 123.5h-2.5v-30.7c0-18.3 14.9-33.2 33.3-33.2h20.7v2.4h-20.7c-17 0-30.8 13.8-30.8 30.8z"/>
					<path id="&lt;Path&gt;" class="s3" d="m150.4 80l-2.1-1.3c4.2-6.6 11.5-10.3 20.8-10.3h3.5v2.5h-3.5c-8.4 0-15.1 3.2-18.7 9.1z"/>
					<path id="&lt;Path&gt;" class="s3" d="m144.4 153.6h-2.5v-59.6q0-1.4 0.2-2.8l2.4 0.3q-0.1 1.2-0.1 2.5z"/>
					<path id="&lt;Path&gt;" class="s3" d="m101.2 212c-3.6-0.3-6.3-3.3-6.3-7 0-3.9 3.1-7.1 7-7.1h2l0.1 1.9v0.6h-2.1c-2.5 0-4.6 2-4.6 4.6 0 2.4 1.8 4.4 4.2 4.6z"/>
					<path id="&lt;Path&gt;" class="s3" d="m113.9 192.6l-0.5-2.4c11.7-2.3 20.1-12.7 20.1-24.6v-29.1h2.4v29.1c0 13-9.2 24.4-22 27z"/>
					<path id="&lt;Path&gt;" class="s3" d="m126.4 212.4h-16.8q-0.7 0-1.4-0.1l0.2-2.4q0.6 0 1.2 0h16.8c13.3 0 24-11 24-24.7v-1.8h2.4v1.8c0 15-11.8 27.2-26.4 27.2z"/>
					<path id="&lt;Path&gt;" class="s3" d="m129.5 218.1v-2.4c15.9 0 28.9-13 28.9-28.9v-31.5h2.4v31.5c0 17.3-14 31.3-31.3 31.3z"/>
					<path id="&lt;Path&gt;" class="s3" d="m119.1 219.2h-17.2c-7.8 0-14.1-6.4-14.1-14.1 0-7.8 6.3-14.1 14.1-14.1h5.8v2.4h-5.8c-6.4 0-11.7 5.2-11.7 11.7 0 6.4 5.3 11.7 11.7 11.7h17.2q1.2 0 2.4-0.2l0.2 2.4q-1.3 0.2-2.6 0.2z"/>
					<path id="&lt;Path&gt;" class="s3" d="m199.5 86.1l-1.2-2.1c3.8-2.1 6.1-6.1 6.1-10.5 0-4.8-2.8-9.1-7.3-11l0.9-2.2c5.4 2.2 8.9 7.4 8.9 13.2 0 5.3-2.9 10.1-7.4 12.6z"/>
					<path id="&lt;Path&gt;" class="s3" d="m189.1 60.4h-1.5v-2.4h1.5z"/>
					<path id="&lt;Path&gt;" class="s3" d="m160.6 144.5h-2.4v-35.6c0-13.2 10.7-24 24-24h6.2q0.3 0 0.6 0l0.2 2.4q-0.4 0-0.8 0h-6.2c-11.9 0-21.6 9.7-21.6 21.6z"/>
					<path id="&lt;Path&gt;" class="s3" d="m152.4 167.5h-2.4v-60c0-11.4 3.4-18.5 11.1-23.1l1.2 2c-6.9 4.2-9.9 10.5-9.9 21.1z"/>
					<path id="&lt;Path&gt;" class="s3" d="m184 68.8c0 1.7-1.4 3.1-3.1 3.1-1.7 0-3.1-1.4-3.1-3.1 0-1.8 1.4-3.2 3.1-3.2 1.7 0 3.1 1.4 3.1 3.2z"/>
					<path id="&lt;Path&gt;" class="s3" d="m166.3 83.6c0 1.7-1.4 3.1-3.1 3.1-1.7 0-3.1-1.4-3.1-3.1 0-1.8 1.4-3.2 3.1-3.2 1.7 0 3.1 1.4 3.1 3.2z"/>
					<path id="&lt;Path&gt;" class="s3" d="m147 88.7c0 1.7-1.4 3.1-3.1 3.1-1.8 0-3.2-1.4-3.2-3.1 0-1.7 1.4-3.1 3.2-3.1 1.7 0 3.1 1.4 3.1 3.1z"/>
					<path id="&lt;Path&gt;" class="s3" d="m146.4 156c0 1.8-1.4 3.2-3.2 3.2-1.7 0-3.1-1.4-3.1-3.2 0-1.7 1.4-3.1 3.1-3.1 1.8 0 3.2 1.4 3.2 3.1z"/>
					<path id="&lt;Path&gt;" class="s3" d="m146.4 168.5c0 1.8-1.4 3.2-3.2 3.2-1.7 0-3.1-1.4-3.1-3.2 0-1.7 1.4-3.1 3.1-3.1 1.8 0 3.2 1.4 3.2 3.1z"/>
					<path id="&lt;Path&gt;" class="s3" d="m152 79.7c0 1.8-1.4 3.2-3.1 3.2-1.8 0-3.2-1.4-3.2-3.2 0-1.7 1.4-3.1 3.2-3.1 1.7 0 3.1 1.4 3.1 3.1z"/>
					<path id="&lt;Path&gt;" class="s3" d="m191.9 60.6c0 1.8-1.4 3.2-3.1 3.2-1.7 0-3.1-1.4-3.1-3.2 0-1.7 1.4-3.1 3.1-3.1 1.7 0 3.1 1.4 3.1 3.1z"/>
					<path id="&lt;Path&gt;" class="s3" d="m194.1 86.5c0 1.8-1.4 3.2-3.2 3.2-1.7 0-3.1-1.4-3.1-3.2 0-1.7 1.4-3.1 3.1-3.1 1.8 0 3.2 1.4 3.2 3.1z"/>
					<path id="&lt;Path&gt;" class="s3" d="m162.6 144.8c0 1.7-1.4 3.1-3.1 3.1-1.7 0-3.1-1.4-3.1-3.1 0-1.7 1.4-3.1 3.1-3.1 1.7 0 3.1 1.4 3.1 3.1z"/>
					<path id="&lt;Path&gt;" class="s3" d="m162.6 154.8c0 1.7-1.4 3.1-3.1 3.1-1.7 0-3.1-1.4-3.1-3.1 0-1.7 1.4-3.1 3.1-3.1 1.7 0 3.1 1.4 3.1 3.1z"/>
					<path id="&lt;Path&gt;" class="s3" d="m154.6 181c0 1.8-1.4 3.2-3.2 3.2-1.7 0-3.1-1.4-3.1-3.2 0-1.7 1.4-3.1 3.1-3.1 1.8 0 3.2 1.4 3.2 3.1z"/>
					<path id="&lt;Path&gt;" class="s3" d="m138.7 186c0 1.7-1.4 3.1-3.1 3.1-1.8 0-3.2-1.4-3.2-3.1 0-1.7 1.4-3.1 3.2-3.1 1.7 0 3.1 1.4 3.1 3.1z"/>
					<path id="&lt;Path&gt;" class="s3" d="m108.8 211.1c0 1.7-1.4 3.1-3.2 3.1-1.7 0-3.1-1.4-3.1-3.1 0-1.7 1.4-3.1 3.1-3.1 1.8 0 3.2 1.4 3.2 3.1z"/>
					<path id="&lt;Path&gt;" class="s3" d="m137.6 125.7c0 1.7-1.4 3.1-3.1 3.1-1.7 0-3.1-1.4-3.1-3.1 0-1.7 1.4-3.1 3.1-3.1 1.7 0 3.1 1.4 3.1 3.1z"/>
					<path id="&lt;Path&gt;" class="s3" d="m137.6 136c0 1.8-1.4 3.2-3.1 3.2-1.7 0-3.1-1.4-3.1-3.2 0-1.7 1.4-3.1 3.1-3.1 1.7 0 3.1 1.4 3.1 3.1z"/>
					<path id="&lt;Path&gt;" class="s3" d="m200.5 61.8c0 1.8-1.4 3.2-3.1 3.2-1.7 0-3.1-1.4-3.1-3.2 0-1.7 1.4-3.1 3.1-3.1 1.7 0 3.1 1.4 3.1 3.1z"/>
					<path id="&lt;Path&gt;" class="s3" d="m118.6 190.9c0 1.7-1.4 3.1-3.1 3.1-1.7 0-3.1-1.4-3.1-3.1 0-1.8 1.4-3.2 3.1-3.2 1.7 0 3.1 1.4 3.1 3.2z"/>
					<path id="&lt;Path&gt;" class="s3" d="m109.8 199.5c0 1.7-1.4 3.1-3.2 3.1-1.7 0-3.1-1.4-3.1-3.1 0-1.7 1.4-3.1 3.1-3.1 1.8 0 3.2 1.4 3.2 3.1z"/>
					<path id="&lt;Path&gt;" class="s3" d="m127 217.6c0 1.7-1.4 3.1-3.1 3.1-1.7 0-3.1-1.4-3.1-3.1 0-1.7 1.4-3.1 3.1-3.1 1.7 0 3.1 1.4 3.1 3.1z"/>
					<path id="&lt;Path&gt;" class="s3" d="m125.9 205.5h-12.3v-2.4h12.3c8.8 0 16.1-7.2 16.1-16v-17h2.4v17c0 10.1-8.3 18.4-18.5 18.4z"/>
					<path id="&lt;Path&gt;" class="s3" d="m119.7 198.6h-1.5v-2.4h1.5c5.9 0 11.4-3.2 14.2-8.5l2.1 1.1c-3.2 6.1-9.5 9.8-16.3 9.8z"/>
					<path id="&lt;Path&gt;" class="s3" d="m171.1 79.9l-0.8-2.3c3.1-1 9.4-0.5 9.6-0.5h12.9c1.9 0 3.4-1.5 3.4-3.4 0-1.9-1.5-3.4-3.4-3.4h-12.9v-2.4h12.9c3.2 0 5.8 2.6 5.8 5.8 0 3.2-2.6 5.8-5.8 5.8h-12.9c-1.8-0.1-6.7-0.3-8.8 0.4z"/>
				</g>
				<g id="&lt;Group&gt;">
					<path id="&lt;Compound Path&gt;" fill-rule="evenodd" class="s4" d="m127.1 226.5h-26.3c-11.6 0-21-9.4-21-20.9 0-11.6 9.4-21 21-21h6.6c10.2 0 18.5-8.3 18.5-18.5v-72.9c0-22.4 18.3-40.7 40.7-40.7h26.3c11.6 0 21 9.4 21 21 0 11.6-9.4 21-21 21h-6.6c-10.2 0-18.5 8.3-18.5 18.5v72.8c0 22.4-18.2 40.7-40.7 40.7zm-26.3-39.5c-10.2 0-18.6 8.3-18.6 18.6 0 10.2 8.4 18.5 18.6 18.5h26.3c21.1 0 38.3-17.2 38.3-38.3v-72.8c0-11.6 9.4-21 20.9-21h6.6c10.3 0 18.6-8.3 18.6-18.5 0-10.2-8.3-18.5-18.6-18.5h-26.3c-21.1 0-38.3 17.1-38.3 38.2v72.9c0 11.5-9.4 20.9-20.9 20.9z"/>
					<path id="&lt;Path&gt;" class="s5" d="m100.8 179c10.9 0 19.7-8.8 19.7-19.7v-66.2c0-21.8-17.6-39.4-39.4-39.4h-26.3c-10.9 0-19.8 8.8-19.8 19.7 0 10.9 8.9 19.7 19.8 19.7h6.5c10.9 0 19.8 8.9 19.8 19.8v46.4c0 10.9 8.8 19.7 19.7 19.7z"/>
					<path id="&lt;Path&gt;" class="s6" d="m135.8 123.5h-2.5v-30.7c0-18.3 14.9-33.2 33.3-33.2h20.7v2.4h-20.7c-17 0-30.8 13.8-30.8 30.8z"/>
					<path id="&lt;Path&gt;" class="s7" d="m150.4 80l-2.1-1.3c4.2-6.6 11.5-10.3 20.8-10.3h3.5v2.5h-3.5c-8.4 0-15.1 3.2-18.7 9.1z"/>
					<path id="&lt;Path&gt;" class="s8" d="m144.4 153.6h-2.5v-59.6q0-1.4 0.2-2.8l2.4 0.3q-0.1 1.2-0.1 2.5z"/>
					<path id="&lt;Path&gt;" class="s9" d="m101.2 212c-3.6-0.3-6.3-3.3-6.3-7 0-3.9 3.1-7.1 7-7.1h2l0.1 1.9v0.6h-2.1c-2.5 0-4.6 2-4.6 4.6 0 2.4 1.8 4.4 4.2 4.6z"/>
					<path id="&lt;Path&gt;" class="s10" d="m113.9 192.6l-0.5-2.4c11.7-2.3 20.1-12.7 20.1-24.6v-29.1h2.4v29.1c0 13-9.2 24.4-22 27z"/>
					<path id="&lt;Path&gt;" class="s11" d="m126.4 212.4h-16.8q-0.7 0-1.4-0.1l0.2-2.4q0.6 0 1.2 0h16.8c13.3 0 24-11 24-24.7v-1.8h2.4v1.8c0 15-11.8 27.2-26.4 27.2z"/>
					<path id="&lt;Path&gt;" class="s12" d="m129.5 218.1v-2.4c15.9 0 28.9-13 28.9-28.9v-31.5h2.4v31.5c0 17.3-14 31.3-31.3 31.3z"/>
					<path id="&lt;Path&gt;" class="s13" d="m119.1 219.2h-17.2c-7.8 0-14.1-6.4-14.1-14.1 0-7.8 6.3-14.1 14.1-14.1h5.8v2.4h-5.8c-6.4 0-11.7 5.2-11.7 11.7 0 6.4 5.3 11.7 11.7 11.7h17.2q1.2 0 2.4-0.2l0.2 2.4q-1.3 0.2-2.6 0.2z"/>
					<path id="&lt;Path&gt;" class="s14" d="m199.5 86.1l-1.2-2.1c3.8-2.1 6.1-6.1 6.1-10.5 0-4.8-2.8-9.1-7.3-11l0.9-2.2c5.4 2.2 8.9 7.4 8.9 13.2 0 5.3-2.9 10.1-7.4 12.6z"/>
					<path id="&lt;Path&gt;" class="s15" d="m189.1 60.4h-1.5v-2.4h1.5z"/>
					<path id="&lt;Path&gt;" class="s16" d="m160.6 144.5h-2.4v-35.6c0-13.2 10.7-24 24-24h6.2q0.3 0 0.6 0l0.2 2.4q-0.4 0-0.8 0h-6.2c-11.9 0-21.6 9.7-21.6 21.6z"/>
					<path id="&lt;Path&gt;" class="s17" d="m152.4 167.5h-2.4v-60c0-11.4 3.4-18.5 11.1-23.1l1.2 2c-6.9 4.2-9.9 10.5-9.9 21.1z"/>
					<path id="&lt;Path&gt;" class="s18" d="m184 68.8c0 1.7-1.4 3.1-3.1 3.1-1.7 0-3.1-1.4-3.1-3.1 0-1.8 1.4-3.2 3.1-3.2 1.7 0 3.1 1.4 3.1 3.2z"/>
					<path id="&lt;Path&gt;" class="s19" d="m166.3 83.6c0 1.7-1.4 3.1-3.1 3.1-1.7 0-3.1-1.4-3.1-3.1 0-1.8 1.4-3.2 3.1-3.2 1.7 0 3.1 1.4 3.1 3.2z"/>
					<path id="&lt;Path&gt;" class="s20" d="m147 88.7c0 1.7-1.4 3.1-3.1 3.1-1.8 0-3.2-1.4-3.2-3.1 0-1.7 1.4-3.1 3.2-3.1 1.7 0 3.1 1.4 3.1 3.1z"/>
					<path id="&lt;Path&gt;" class="s21" d="m146.4 156c0 1.8-1.4 3.2-3.2 3.2-1.7 0-3.1-1.4-3.1-3.2 0-1.7 1.4-3.1 3.1-3.1 1.8 0 3.2 1.4 3.2 3.1z"/>
					<path id="&lt;Path&gt;" class="s22" d="m146.4 168.5c0 1.8-1.4 3.2-3.2 3.2-1.7 0-3.1-1.4-3.1-3.2 0-1.7 1.4-3.1 3.1-3.1 1.8 0 3.2 1.4 3.2 3.1z"/>
					<path id="&lt;Path&gt;" class="s23" d="m152 79.7c0 1.8-1.4 3.2-3.1 3.2-1.8 0-3.2-1.4-3.2-3.2 0-1.7 1.4-3.1 3.2-3.1 1.7 0 3.1 1.4 3.1 3.1z"/>
					<path id="&lt;Path&gt;" class="s24" d="m191.9 60.6c0 1.8-1.4 3.2-3.1 3.2-1.7 0-3.1-1.4-3.1-3.2 0-1.7 1.4-3.1 3.1-3.1 1.7 0 3.1 1.4 3.1 3.1z"/>
					<path id="&lt;Path&gt;" class="s25" d="m194.1 86.5c0 1.8-1.4 3.2-3.2 3.2-1.7 0-3.1-1.4-3.1-3.2 0-1.7 1.4-3.1 3.1-3.1 1.8 0 3.2 1.4 3.2 3.1z"/>
					<path id="&lt;Path&gt;" class="s26" d="m162.6 144.8c0 1.7-1.4 3.1-3.1 3.1-1.7 0-3.1-1.4-3.1-3.1 0-1.7 1.4-3.1 3.1-3.1 1.7 0 3.1 1.4 3.1 3.1z"/>
					<path id="&lt;Path&gt;" class="s27" d="m162.6 154.8c0 1.7-1.4 3.1-3.1 3.1-1.7 0-3.1-1.4-3.1-3.1 0-1.7 1.4-3.1 3.1-3.1 1.7 0 3.1 1.4 3.1 3.1z"/>
					<path id="&lt;Path&gt;" class="s28" d="m154.6 181c0 1.8-1.4 3.2-3.2 3.2-1.7 0-3.1-1.4-3.1-3.2 0-1.7 1.4-3.1 3.1-3.1 1.8 0 3.2 1.4 3.2 3.1z"/>
					<path id="&lt;Path&gt;" class="s29" d="m138.7 186c0 1.7-1.4 3.1-3.1 3.1-1.8 0-3.2-1.4-3.2-3.1 0-1.7 1.4-3.1 3.2-3.1 1.7 0 3.1 1.4 3.1 3.1z"/>
					<path id="&lt;Path&gt;" class="s30" d="m108.8 211.1c0 1.7-1.4 3.1-3.2 3.1-1.7 0-3.1-1.4-3.1-3.1 0-1.7 1.4-3.1 3.1-3.1 1.8 0 3.2 1.4 3.2 3.1z"/>
					<path id="&lt;Path&gt;" class="s31" d="m137.6 125.7c0 1.7-1.4 3.1-3.1 3.1-1.7 0-3.1-1.4-3.1-3.1 0-1.7 1.4-3.1 3.1-3.1 1.7 0 3.1 1.4 3.1 3.1z"/>
					<path id="&lt;Path&gt;" class="s32" d="m137.6 136c0 1.8-1.4 3.2-3.1 3.2-1.7 0-3.1-1.4-3.1-3.2 0-1.7 1.4-3.1 3.1-3.1 1.7 0 3.1 1.4 3.1 3.1z"/>
					<path id="&lt;Path&gt;" class="s33" d="m200.5 61.8c0 1.8-1.4 3.2-3.1 3.2-1.7 0-3.1-1.4-3.1-3.2 0-1.7 1.4-3.1 3.1-3.1 1.7 0 3.1 1.4 3.1 3.1z"/>
					<path id="&lt;Path&gt;" class="s34" d="m118.6 190.9c0 1.7-1.4 3.1-3.1 3.1-1.7 0-3.1-1.4-3.1-3.1 0-1.8 1.4-3.2 3.1-3.2 1.7 0 3.1 1.4 3.1 3.2z"/>
					<path id="&lt;Path&gt;" class="s35" d="m109.8 199.5c0 1.7-1.4 3.1-3.2 3.1-1.7 0-3.1-1.4-3.1-3.1 0-1.7 1.4-3.1 3.1-3.1 1.8 0 3.2 1.4 3.2 3.1z"/>
					<path id="&lt;Path&gt;" class="s36" d="m127 217.6c0 1.7-1.4 3.1-3.1 3.1-1.7 0-3.1-1.4-3.1-3.1 0-1.7 1.4-3.1 3.1-3.1 1.7 0 3.1 1.4 3.1 3.1z"/>
					<path id="&lt;Path&gt;" class="s37" d="m125.9 205.5h-12.3v-2.4h12.3c8.8 0 16.1-7.2 16.1-16v-17h2.4v17c0 10.1-8.3 18.4-18.5 18.4z"/>
					<path id="&lt;Path&gt;" class="s38" d="m119.7 198.6h-1.5v-2.4h1.5c5.9 0 11.4-3.2 14.2-8.5l2.1 1.1c-3.2 6.1-9.5 9.8-16.3 9.8z"/>
					<path id="&lt;Path&gt;" class="s39" d="m171.1 79.9l-0.8-2.3c3.1-1 9.4-0.5 9.6-0.5h12.9c1.9 0 3.4-1.5 3.4-3.4 0-1.9-1.5-3.4-3.4-3.4h-12.9v-2.4h12.9c3.2 0 5.8 2.6 5.8 5.8 0 3.2-2.6 5.8-5.8 5.8h-12.9c-1.8-0.1-6.7-0.3-8.8 0.4z"/>
				</g>
			</g>
		</g>
	</g>
</svg>